# Blender v2.79 (sub 0) OBJ File: 'projector.blend'
# www.blender.org
mtllib projector.mtl
o Cube_Cube.002
v 1.000000 -0.750000 0.500000
v 1.000000 0.750000 0.500000
v -1.000000 -0.750000 0.500000
v -1.000000 0.750000 0.500000
v 1.000000 -0.750000 -1.000000
v 1.000000 0.750000 -1.000000
v -1.000000 -0.750000 -1.000000
v -1.000000 0.750000 -1.000000
v -1.539402 1.154552 -2.000000
v -1.539402 -1.154552 -2.000000
v 1.539402 -1.154552 -2.000000
v 1.539402 1.154552 -2.000000
vn 0.0000 0.0000 1.0000
vn -1.0000 0.0000 0.0000
vn 0.0000 -0.9270 0.3750
vn 1.0000 0.0000 -0.0000
vn 0.0000 -1.0000 0.0000
vn 0.0000 1.0000 0.0000
vn -0.0000 0.0000 -1.0000
vn 0.0000 0.9270 0.3750
vn -0.8801 0.0000 0.4747
vn 0.8801 0.0000 0.4747
usemtl None
s off
f 1//1 2//1 4//1 3//1
f 3//2 4//2 8//2 7//2
f 5//3 7//3 10//3 11//3
f 5//4 6//4 2//4 1//4
f 3//5 7//5 5//5 1//5
f 8//6 4//6 2//6 6//6
f 10//7 9//7 12//7 11//7
f 8//8 6//8 12//8 9//8
f 7//9 8//9 9//9 10//9
f 6//10 5//10 11//10 12//10
